<?xml version="1.0" encoding="UTF-8"?>
<svg width="200px" height="200px" viewBox="0 0 200 200" version="1.1" xmlns="http://www.w3.org/2000/svg" xmlns:xlink="http://www.w3.org/1999/xlink">
    <!-- Generator: Sketch 53.2 (72643) - https://sketchapp.com -->
    <title>icon</title>
    <desc>Created with Sketch.</desc>
    <g id="icon" stroke="none" stroke-width="1" fill="none" fill-rule="evenodd">
        <g id="Group" fill-rule="nonzero">
            <path d="M199.99881,99.5678571 C199.994048,98.1337619 199.960952,96.707381 199.896667,95.2878571 L199.896667,14.3569048 L177.522619,36.7309524 C159.210714,14.3164286 131.353571,0 100.15119,0 C67.6797619,0 38.8321429,15.4992857 20.5964286,39.502381 L57.2702381,76.5619048 C60.8642857,69.915 65.97,64.2059524 72.1261905,59.8940476 C78.5288095,54.897619 87.6007143,50.812381 100.15,50.812381 C101.666048,50.812381 102.83619,50.9895238 103.695952,51.3232857 C119.244524,52.5505 132.722143,61.131381 140.657857,73.5859048 L114.698333,99.5454286 C147.579286,99.416381 184.724524,99.3406667 199.995952,99.5620952" id="Path" fill="#1C3AA9"></path>
            <path d="M99.5678571,0.00357142857 C98.1337619,0.00833333333 96.707381,0.0414285714 95.2878571,0.105714286 L14.3569048,0.105714286 L36.7309524,22.4797619 C14.3164286,40.7916667 -1.42108547e-14,68.6488095 -1.42108547e-14,99.8511905 C-1.42108547e-14,132.322619 15.4995238,161.170238 39.502381,179.405952 L76.5619048,142.732143 C69.915,139.138095 64.2059524,134.032381 59.8940476,127.87619 C54.8978571,121.473571 50.812381,112.401667 50.812381,99.852381 C50.812381,98.3363333 50.9895238,97.1661905 51.3232857,96.3064286 C52.5505,80.7578571 61.131381,67.2802381 73.5859048,59.3445238 L99.5454286,85.3040476 C99.416381,52.4230952 99.3404286,15.2778571 99.5620952,0.00642857143" id="Path" fill="#4285F4"></path>
            <path d="M0.00357142857,99.8488095 C0.00833333333,101.282905 0.0414285714,102.709286 0.105714286,104.12881 L0.105714286,185.059762 L22.4797619,162.685714 C40.7916667,185.100238 68.6488095,199.416667 99.8511905,199.416667 C132.322619,199.416667 161.170238,183.917381 179.405952,159.914286 L142.732143,122.854762 C139.138095,129.501667 134.032381,135.210714 127.87619,139.522619 C121.473571,144.519048 112.401667,148.604286 99.852381,148.604286 C98.3363333,148.604286 97.1661905,148.427143 96.3064286,148.093381 C80.7578571,146.866167 67.2802381,138.285286 59.3445238,125.830762 L85.3040476,99.8712381 C52.4230952,100.000286 15.2778571,100.076 0.00642857143,99.8545714" id="Path" fill="#ABABAB"></path>
        </g>
    </g>
</svg>